<svg id="visual" viewBox="0 0 960 540" width="960" height="540" xmlns="http://www.w3.org/2000/svg" xmlns:xlink="http://www.w3.org/1999/xlink" version="1.1"><path d="M0 342L22.8 336.8C45.7 331.7 91.3 321.3 137 315.7C182.7 310 228.3 309 274 316.7C319.7 324.3 365.3 340.7 411.2 333.3C457 326 503 295 548.8 299.7C594.7 304.3 640.3 344.7 686 346.8C731.7 349 777.3 313 823 300.7C868.7 288.3 914.3 299.7 937.2 305.3L960 311L960 0L937.2 0C914.3 0 868.7 0 823 0C777.3 0 731.7 0 686 0C640.3 0 594.7 0 548.8 0C503 0 457 0 411.2 0C365.3 0 319.7 0 274 0C228.3 0 182.7 0 137 0C91.3 0 45.7 0 22.8 0L0 0Z" fill="#4facf7"></path><path d="M0 261L22.8 263.2C45.7 265.3 91.3 269.7 137 266.3C182.7 263 228.3 252 274 257.7C319.7 263.3 365.3 285.7 411.2 300.2C457 314.7 503 321.3 548.8 318.2C594.7 315 640.3 302 686 299.5C731.7 297 777.3 305 823 291.2C868.7 277.3 914.3 241.7 937.2 223.8L960 206L960 0L937.2 0C914.3 0 868.7 0 823 0C777.3 0 731.7 0 686 0C640.3 0 594.7 0 548.8 0C503 0 457 0 411.2 0C365.3 0 319.7 0 274 0C228.3 0 182.7 0 137 0C91.3 0 45.7 0 22.8 0L0 0Z" fill="#3194eb"></path><path d="M0 161L22.8 164.5C45.7 168 91.3 175 137 190.5C182.7 206 228.3 230 274 230C319.7 230 365.3 206 411.2 191.8C457 177.7 503 173.3 548.8 185.8C594.7 198.3 640.3 227.7 686 226.2C731.7 224.7 777.3 192.3 823 182.3C868.7 172.3 914.3 184.7 937.2 190.8L960 197L960 0L937.2 0C914.3 0 868.7 0 823 0C777.3 0 731.7 0 686 0C640.3 0 594.7 0 548.8 0C503 0 457 0 411.2 0C365.3 0 319.7 0 274 0C228.3 0 182.7 0 137 0C91.3 0 45.7 0 22.8 0L0 0Z" fill="#137cdd"></path><path d="M0 128L22.8 129.2C45.7 130.3 91.3 132.7 137 128.2C182.7 123.7 228.3 112.3 274 107.3C319.7 102.3 365.3 103.7 411.2 106.8C457 110 503 115 548.8 120.2C594.7 125.3 640.3 130.7 686 134.7C731.7 138.7 777.3 141.3 823 147.2C868.7 153 914.3 162 937.2 166.5L960 171L960 0L937.2 0C914.3 0 868.7 0 823 0C777.3 0 731.7 0 686 0C640.3 0 594.7 0 548.8 0C503 0 457 0 411.2 0C365.3 0 319.7 0 274 0C228.3 0 182.7 0 137 0C91.3 0 45.7 0 22.8 0L0 0Z" fill="#0064ce"></path><path d="M0 119L22.8 105.8C45.7 92.7 91.3 66.3 137 57.2C182.7 48 228.3 56 274 65.5C319.7 75 365.3 86 411.2 83.3C457 80.7 503 64.3 548.8 63C594.7 61.7 640.3 75.3 686 77C731.7 78.7 777.3 68.3 823 71C868.7 73.7 914.3 89.3 937.2 97.2L960 105L960 0L937.2 0C914.3 0 868.7 0 823 0C777.3 0 731.7 0 686 0C640.3 0 594.7 0 548.8 0C503 0 457 0 411.2 0C365.3 0 319.7 0 274 0C228.3 0 182.7 0 137 0C91.3 0 45.7 0 22.8 0L0 0Z" fill="#004bbc"></path></svg>