<svg id="visual" viewBox="0 0 960 540" width="960" height="540" xmlns="http://www.w3.org/2000/svg" xmlns:xlink="http://www.w3.org/1999/xlink" version="1.1"><rect x="0" y="0" width="960" height="540" fill="#00245a"></rect><path d="M0 55L12.3 48.7C24.7 42.3 49.3 29.7 74 31C98.7 32.3 123.3 47.7 148 55.7C172.7 63.7 197.3 64.3 221.8 63.5C246.3 62.7 270.7 60.3 295.2 52.8C319.7 45.3 344.3 32.7 369 29.3C393.7 26 418.3 32 443 39.3C467.7 46.7 492.3 55.3 517 53.2C541.7 51 566.3 38 591 41.5C615.7 45 640.3 65 664.8 73.8C689.3 82.7 713.7 80.3 738.2 76.8C762.7 73.3 787.3 68.7 812 63.7C836.7 58.7 861.3 53.3 886 56.7C910.7 60 935.3 72 947.7 78L960 84L960 0L947.7 0C935.3 0 910.7 0 886 0C861.3 0 836.7 0 812 0C787.3 0 762.7 0 738.2 0C713.7 0 689.3 0 664.8 0C640.3 0 615.7 0 591 0C566.3 0 541.7 0 517 0C492.3 0 467.7 0 443 0C418.3 0 393.7 0 369 0C344.3 0 319.7 0 295.2 0C270.7 0 246.3 0 221.8 0C197.3 0 172.7 0 148 0C123.3 0 98.7 0 74 0C49.3 0 24.7 0 12.3 0L0 0Z" fill="#0066FF" stroke-linecap="round" stroke-linejoin="miter"></path></svg>